<?xml version="1.0" encoding="UTF-8"?>
<svg width="182px" height="64px" viewBox="0 0 182 64" version="1.1" xmlns="http://www.w3.org/2000/svg" xmlns:xlink="http://www.w3.org/1999/xlink">
    <!-- Generator: Sketch 52.1 (67048) - http://www.bohemiancoding.com/sketch -->
    <title>ribbon_v4</title>
    <desc>Created with Sketch.</desc>
    <g id="ribbon_v4" stroke="none" stroke-width="1" fill="none" fill-rule="evenodd">
        <rect id="Rectangle" fill="#210815" x="-5" y="-3" width="190" height="70"></rect>
        <path d="M47.166823,51 C43.9134011,51 11.3220328,8.70276288 13.0676415,6.03949861 C15.7115336,2.00572889 74.4463522,4.82599412 77.8173607,7.05954294 C80.593278,8.89879872 50.8642061,51 47.166823,51 Z M46.6701169,43.9971019 C49.265696,43.9971019 70.1356334,11.746734 68.1869274,10.337827 C65.8204648,8.62688365 24.5883674,6.46650369 22.7323436,9.55645252 C21.5069187,11.5965666 44.3862007,43.9971019 46.6701169,43.9971019 Z M46.5622555,35.4163521 C42.0652831,33.851775 31.9188476,17.5116804 31.9188476,13.9853888 C31.9188476,12.8812652 58.3111694,10.9097145 58.3111694,17.3299561 C58.3111694,18.7828191 48.1537909,35.9700757 46.5622555,35.4163521 Z" id="Middle-Triangle" fill="#FFFFFF"></path>
        <path d="M-0.633699365,11 C3.29154978,11 42.7611774,54.5547967 39.8463268,57.1533414 C36.9314762,59.7518862 -26.9861883,55.8647343 -28.8999728,52.3013026 C-30.8137573,48.7378709 -4.680271,11 -0.633699365,11 Z M-1.12701738,17.7868124 C-4.17868869,17.7868124 -23.88693,46.246355 -22.4436734,48.9336723 C-21.0004168,51.6209897 27.2022893,54.5524366 29.4004873,52.5927767 C31.5986853,50.6331167 1.8331601,17.7868124 -1.12701738,17.7868124 Z" id="Combined-Shape" fill="#FFFFFF"></path>
        <path d="M0.345734147,25 C2.28318505,25 21.3613572,46.1641245 19.9226256,47.4286066 C18.483894,48.6930888 -14.0104708,47.7045237 -14.9550894,45.9705163 C-15.899708,44.2365089 -1.65159993,25 0.345734147,25 Z M1.30421337,32.939125 C-0.202051103,32.939125 -7.76355678,41.5806292 -7.05118447,42.8883092 C-6.33881215,44.1959891 11.014092,45.0503745 12.0990934,44.0967812 C13.1840948,43.1431878 2.7653177,32.939125 1.30421337,32.939125 Z" id="Combined-Shape" fill="#FFFFFF"></path>
        <path d="M181.366301,11 C185.29155,11 224.761177,54.5547967 221.846327,57.1533414 C218.931476,59.7518862 155.013812,55.8647343 153.100027,52.3013026 C151.186243,48.7378709 177.319729,11 181.366301,11 Z M180.872983,17.7868124 C177.821311,17.7868124 158.11307,46.246355 159.556327,48.9336723 C160.999583,51.6209897 209.202289,54.5524366 211.400487,52.5927767 C213.598685,50.6331167 183.83316,17.7868124 180.872983,17.7868124 Z" id="Combined-Shape" fill="#FFFFFF"></path>
        <path d="M182.345734,25 C184.283185,25 203.361357,46.1641245 201.922626,47.4286066 C200.483894,48.6930888 167.989529,47.7045237 167.044911,45.9705163 C166.100292,44.2365089 180.3484,25 182.345734,25 Z M183.304213,32.939125 C181.797949,32.939125 174.236443,41.5806292 174.948816,42.8883092 C175.661188,44.1959891 193.014092,45.0503745 194.099093,44.0967812 C195.184095,43.1431878 184.765318,32.939125 183.304213,32.939125 Z" id="Combined-Shape" fill="#FFFFFF"></path>
        <path d="M90.7846458,9 C98.421096,9 129.911345,54.0367126 127.908587,56.4399587 C126.185173,58.5080006 65.2373387,60.98138 61.9600206,56.4399587 C54.722225,46.4104534 90.7846458,9 90.7846458,9 Z M91.6503764,14.8253567 C91.6503764,14.8253567 63.9910141,43.5186407 69.5423001,51.2111281 C72.0559563,54.6943335 118.802076,52.7972868 120.12391,51.2111281 C121.659996,49.3678727 97.5074247,14.8253567 91.6503764,14.8253567 Z" id="Combined-Shape" fill="#FFFFFF"></path>
        <path d="M93.1185091,23 C95.7045022,23.8587787 110.833202,42.1263961 108.815333,45.344589 C106.725924,48.676879 80.3059031,48.676879 78.6622471,46.4335849 C75.0323137,41.4793802 87.2375953,27.9620386 93.1185091,23 Z M92.9300248,31.7723764 C91.7798519,31.7723764 85.4213578,39.5000213 87.357791,41.6691928 C88.8103108,43.2962898 99.8170917,41.194025 100.480024,40.4105213 C101.250409,39.5000213 95.3595929,31.7723764 92.9300248,31.7723764 Z" id="Combined-Shape" fill="#FFFFFF"></path>
        <path d="M140.166823,51 C136.913401,51 104.322033,8.70276288 106.067641,6.03949861 C108.711534,2.00572889 167.446352,4.82599412 170.817361,7.05954294 C173.593278,8.89879872 143.864206,51 140.166823,51 Z M139.670117,43.9971019 C142.265696,43.9971019 163.135633,11.746734 161.186927,10.337827 C158.820465,8.62688365 117.588367,6.46650369 115.732344,9.55645252 C114.506919,11.5965666 137.386201,43.9971019 139.670117,43.9971019 Z M140.643408,34.6047676 C131.053968,23.1339113 124.049348,16.6677404 124.049348,13.1414488 C124.049348,9.61515715 155.153535,13.1414488 155.153535,14.7067139 C155.153535,16.2719791 141.613677,35.7654002 140.643408,34.6047676 Z" id="Middle-Triangle-Copy" fill="#FFFFFF"></path>
    </g>
</svg>